<?xml version="1.0" encoding="UTF-8"?>
<svg id="_レイヤー_2" data-name="レイヤー 2" xmlns="http://www.w3.org/2000/svg" viewBox="0 0 1101.26 405.4">
  <defs>
    <style>
      .cls-1 {
        fill: #2e2f2e;
      }
    </style>
  </defs>
  <g id="_レイヤー_1-2" data-name="レイヤー 1">
    <path class="cls-1" d="M801.72,215.51c-10.33.09-20.57.81-30.67,2.14,6.77,75.61,64.39,136.57,138.42,148.45v-56.26c-43.83-10.77-77.35-47.73-83.05-93.33-7.41-.66-14.89-1.02-22.42-1.02-.75,0-1.51,0-2.27.01Z"/>
    <path class="cls-1" d="M804,167.94c8.99,0,17.91.42,26.75,1.21,11.57-36.29,41.41-64.43,78.71-73.6v-56.25c-67.96,10.91-122.1,63.18-135.75,130.19,9.12-.92,18.32-1.44,27.58-1.53.9-.01,1.81-.01,2.71-.01Z"/>
    <path class="cls-1" d="M801.72,215.51c-10.33.09-20.57.81-30.67,2.14-.58.08-1.15.17-1.72.24-6.2,44.97-39.48,81.29-82.87,91.95v56.25c74.44-11.94,132.28-73.51,138.52-149.7-6.94-.58-13.94-.9-20.99-.9-.75,0-1.51,0-2.27.01Z"/>
    <path class="cls-1" d="M804,167.94c6.03,0,12.03.2,18,.57-13.98-66.54-67.92-118.36-135.55-129.21v56.25c37.74,9.28,67.85,37.97,79.12,74.88,2.71-.35,5.42-.67,8.14-.95,9.12-.92,18.32-1.44,27.58-1.53.9-.01,1.81-.01,2.71-.01Z"/>
    <path class="cls-1" d="M633.61,95.55v-56.26c-78.85,12.65-139.09,80.99-139.09,163.41,0,2.11.05,4.21.13,6.31,17.85-11.41,36.98-20.7,57.11-27.54,8.22-42.16,40.43-75.74,81.85-85.92Z"/>
    <path class="cls-1" d="M633.61,366.11v-56.26c-38.88-9.56-69.64-39.72-80.08-78.24-17.4,7.25-33.78,16.8-48.85,28.3,20.35,55.24,69.32,96.63,128.93,106.2Z"/>
    <path class="cls-1" d="M962.31,309.85v56.26c64.08-10.28,115.87-57.34,133.02-118.84-15.99-9.87-33.16-17.66-51.22-23.06-8.31,42.03-40.47,75.49-81.8,85.64Z"/>
    <path class="cls-1" d="M962.31,39.3v56.25c39.16,9.62,70.11,40.15,80.32,79.08,20.48,4.79,40.12,12.06,58.64,21.5-3.1-79.46-62.21-144.52-138.96-156.84Z"/>
    <path class="cls-1" d="M888.54,202.65c0-34.89,21.2-63.18,47.35-63.18s47.35,28.29,47.35,63.18-21.2,63.18-47.35,63.18-47.35-28.29-47.35-63.18ZM915.78,153.88c-11.1,0-20.1,9-20.1,20.1s9,20.1,20.1,20.1,20.1-9,20.1-20.1-9-20.1-20.1-20.1ZM959.6,232.39c-3.72,0-6.74,3.02-6.74,6.74s3.02,6.74,6.74,6.74,6.74-3.02,6.74-6.74-3.02-6.74-6.74-6.74Z"/>
    <path class="cls-1" d="M612.68,202.7c0-34.89,21.2-63.18,47.35-63.18s47.35,28.29,47.35,63.18-21.2,63.18-47.35,63.18-47.35-28.29-47.35-63.18ZM640.95,159.55c-11.1,0-20.1,9-20.1,20.1s9,20.1,20.1,20.1,20.1-9,20.1-20.1-9-20.1-20.1-20.1ZM685.78,232.39c-3.72,0-6.74,3.02-6.74,6.74s3.02,6.74,6.74,6.74,6.74-3.02,6.74-6.74-3.02-6.74-6.74-6.74Z"/>
    <g>
      <path class="cls-1" d="M31.52,104.63c-5.55,0-10.47-.86-14.77-2.58-4.3-1.71-7.86-4.22-10.68-7.51-2.82-3.29-4.84-7.33-6.06-12.13l15.23-6.63c1.32,4.37,3.42,7.69,6.31,9.94,2.89,2.26,6.4,3.38,10.54,3.38,4.88,0,8.64-1.06,11.24-3.18,2.61-2.12,3.91-5.03,3.91-8.74v-4.59c0-3-.81-5.35-2.43-7.01-1.62-1.67-3.74-3.02-6.35-4.06-2.61-1.03-5.44-1.97-8.5-2.82-3.15-.99-6.35-2.06-9.62-3.21-3.26-1.15-6.24-2.7-8.92-4.65-2.68-1.95-4.84-4.57-6.49-7.86-1.65-3.29-2.47-7.52-2.47-12.69v-2.75c0-8.84,2.7-15.64,8.11-20.41C15.98,2.38,23.62,0,33.49,0c7.42,0,13.58,1.79,18.47,5.39,4.89,3.59,8.2,8.9,9.94,15.9l-14.59,6.84c-1.27-4.18-3.14-7.35-5.61-9.48-2.47-2.14-5.37-3.21-8.71-3.21-4.61,0-8.17,1-10.68,3-2.51,2-3.77,4.83-3.77,8.5v3.32c0,3.2.88,5.67,2.64,7.4,1.76,1.74,4.08,3.13,6.95,4.16,2.86,1.03,5.92,2.07,9.16,3.1,3.1.94,6.18,2,9.24,3.17,3.06,1.18,5.84,2.72,8.35,4.62,2.52,1.91,4.55,4.46,6.1,7.65,1.56,3.2,2.33,7.24,2.33,12.13v4.58c0,8.79-2.76,15.58-8.29,20.37-5.52,4.79-13.36,7.2-23.51,7.2Z"/>
      <path class="cls-1" d="M103.29,104.63c-8.27,0-14.7-2.28-19.28-6.84-4.59-4.56-6.88-11-6.88-19.32v-23.41c0-8.27,2.29-14.65,6.88-19.14,4.58-4.49,11.01-6.73,19.28-6.73s14.76,2.25,19.32,6.73c4.56,4.49,6.84,10.87,6.84,19.14v23.62c0,8.27-2.28,14.67-6.84,19.18-4.56,4.51-11,6.77-19.32,6.77ZM103.37,89.4c3.2,0,5.66-1,7.41-3,1.73-2,2.61-4.76,2.61-8.28v-22.56c0-3.53-.87-6.25-2.61-8.18-1.74-1.93-4.21-2.89-7.41-2.89s-5.69.97-7.47,2.89c-1.79,1.93-2.68,4.65-2.68,8.18v22.56c0,3.52.89,6.29,2.68,8.28,1.79,2,4.28,3,7.47,3Z"/>
      <path class="cls-1" d="M145.6,103.57V1.06h16.14v102.52h-16.14ZM182.33,103.57v-47.73c0-3.71-.89-6.55-2.68-8.5-1.79-1.95-4.37-2.93-7.76-2.93s-5.81.93-7.55,2.79c-1.74,1.86-2.61,4.57-2.61,8.14l-1.41-12.41c1.83-4.47,4.3-7.87,7.4-10.22,3.1-2.35,6.7-3.53,10.79-3.53,6.39,0,11.32,2.13,14.77,6.38,3.45,4.25,5.18,10.31,5.18,18.15v49.85h-16.14Z"/>
      <path class="cls-1" d="M240.43,104.63c-8.27,0-14.7-2.28-19.28-6.84-4.59-4.56-6.88-11-6.88-19.32v-23.41c0-8.27,2.29-14.65,6.88-19.14,4.58-4.49,11.01-6.73,19.28-6.73s14.76,2.25,19.32,6.73c4.56,4.49,6.84,10.87,6.84,19.14v23.62c0,8.27-2.28,14.67-6.84,19.18-4.56,4.51-11,6.77-19.32,6.77ZM240.51,89.4c3.2,0,5.66-1,7.41-3,1.73-2,2.61-4.76,2.61-8.28v-22.56c0-3.53-.87-6.25-2.61-8.18-1.74-1.93-4.21-2.89-7.41-2.89s-5.69.97-7.47,2.89c-1.79,1.93-2.68,4.65-2.68,8.18v22.56c0,3.52.89,6.29,2.68,8.28,1.79,2,4.28,3,7.47,3Z"/>
      <path class="cls-1" d="M304.6,104.63c-7.43,0-13.5-1.52-18.23-4.55-4.72-3.03-7.86-7.39-9.41-13.08l13.61-6.62c1.46,3.15,3.41,5.53,5.85,7.15,2.44,1.62,5.34,2.44,8.67,2.44,3.62,0,6.41-.71,8.35-2.12,1.95-1.41,2.93-3.36,2.93-5.85,0-2.3-.74-4-2.22-5.08-1.48-1.08-3.42-1.9-5.82-2.47-2.4-.56-4.98-1.11-7.76-1.62-2.49-.61-4.98-1.32-7.47-2.12s-4.76-1.93-6.8-3.38c-2.05-1.46-3.71-3.43-5.01-5.92-1.29-2.49-1.94-5.73-1.94-9.73,0-7.1,2.22-12.61,6.66-16.53,4.44-3.93,10.63-5.89,18.58-5.89,6.82,0,12.39,1.38,16.71,4.12,4.32,2.75,7.31,6.8,8.95,12.16l-13.61,6.49c-1.22-2.68-2.85-4.72-4.9-6.13-2.04-1.41-4.45-2.12-7.23-2.12-3.24,0-5.73.67-7.47,2.01-1.74,1.34-2.61,3.21-2.61,5.61,0,1.97.67,3.48,2.01,4.51,1.34,1.03,3.09,1.82,5.25,2.36,2.16.54,4.49,1.05,6.98,1.52,2.58.47,5.23,1.06,7.93,1.76,2.7.71,5.18,1.79,7.44,3.24,2.26,1.46,4.04,3.55,5.36,6.28s1.97,6.3,1.97,10.72c0,7.24-2.34,12.85-7.01,16.85-4.68,4-11.27,6-19.78,6Z"/>
      <path class="cls-1" d="M362.77,104.63c-7,0-12.3-1.8-15.9-5.4-3.59-3.59-5.39-9.03-5.39-16.32s2.06-13.35,6.17-17.2c4.11-3.85,10.21-5.79,18.29-5.79h13.47l.99,12.97h-14.17c-3.24,0-5.66.84-7.26,2.5-1.6,1.67-2.4,4.17-2.4,7.51,0,2.77.83,4.85,2.5,6.24,1.67,1.38,4.17,2.08,7.51,2.08,4.09,0,7.17-.7,9.23-2.11,2.07-1.41,3.1-3.5,3.1-6.28l1.41,8.39c-.42,3.01-1.43,5.5-3.03,7.48-1.6,1.97-3.62,3.45-6.06,4.44-2.44.99-5.26,1.48-8.46,1.48ZM378.91,103.57v-49.71c0-3.25-.93-5.77-2.78-7.58-1.86-1.81-4.5-2.72-7.94-2.72-2.44,0-4.63.56-6.56,1.66-1.93,1.11-3.45,2.67-4.58,4.69l-13.05-4.66c1.5-5.08,4.36-9.03,8.57-11.85,4.2-2.82,9.44-4.23,15.69-4.23,8.23,0,14.58,2.13,19.07,6.38,4.49,4.25,6.73,10.26,6.73,18.02v49.99h-15.16Z"/>
      <path class="cls-1" d="M411.07,17.34V1.34h16v16h-16ZM411.07,103.57V30.39h16v73.19h-16Z"/>
      <path class="cls-1" d="M33.91,240.28c-6.39,0-11.94-1.27-16.64-3.81s-8.32-6.15-10.85-10.85c-2.54-4.7-3.81-10.25-3.81-16.64v-42.02c0-6.44,1.27-12,3.81-16.68,2.54-4.67,6.15-8.29,10.85-10.82s10.25-3.8,16.64-3.8,11.94,1.26,16.64,3.8c4.7,2.54,8.32,6.15,10.86,10.82,2.54,4.68,3.8,10.24,3.8,16.68v42.02c0,6.39-1.26,11.94-3.8,16.64-2.54,4.7-6.16,8.32-10.86,10.85-4.7,2.54-10.25,3.81-16.64,3.81ZM33.91,224.34c4.61,0,8.23-1.41,10.86-4.23,2.63-2.82,3.95-6.62,3.95-11.42v-41.53c0-4.79-1.32-8.59-3.95-11.39-2.64-2.79-6.26-4.2-10.86-4.2s-8.18,1.4-10.85,4.2c-2.68,2.8-4.02,6.59-4.02,11.39v41.53c0,4.79,1.34,8.6,4.02,11.42,2.68,2.82,6.29,4.23,10.85,4.23Z"/>
      <path class="cls-1" d="M82.43,239.22v-73.19h16.21v73.19h-16.21ZM119.16,239.22v-47.8c0-3.76-.89-6.6-2.68-8.53-1.79-1.92-4.37-2.89-7.76-2.89s-5.79.95-7.51,2.85c-1.72,1.91-2.58,4.62-2.58,8.14l-1.48-12.27c1.83-4.56,4.3-8.01,7.4-10.36,3.1-2.35,6.7-3.53,10.79-3.53,6.39,0,11.32,2.13,14.77,6.38,3.45,4.25,5.18,10.31,5.18,18.15v49.85h-16.14Z"/>
      <path class="cls-1" d="M169.01,136.71v81.37c0,1.83.44,3.26,1.34,4.26.89,1.01,2.14,1.52,3.73,1.52h4.09v15.44h-7.61c-5.59,0-9.94-1.69-13.05-5.08-3.1-3.38-4.65-8.15-4.65-14.31v-83.2h16.14Z"/>
      <path class="cls-1" d="M189.88,152.99v-16h16v16h-16ZM189.88,239.22v-73.19h16v73.19h-16Z"/>
      <path class="cls-1" d="M222.88,239.22v-73.19h16.21v73.19h-16.21ZM259.61,239.22v-47.8c0-3.76-.89-6.6-2.68-8.53-1.79-1.92-4.37-2.89-7.76-2.89s-5.79.95-7.51,2.85c-1.72,1.91-2.58,4.62-2.58,8.14l-1.48-12.27c1.83-4.56,4.3-8.01,7.4-10.36,3.1-2.35,6.7-3.53,10.79-3.53,6.39,0,11.32,2.13,14.77,6.38,3.45,4.25,5.18,10.31,5.18,18.15v49.85h-16.14Z"/>
      <path class="cls-1" d="M319.33,240.28c-8.79,0-15.62-2.44-20.48-7.33-4.87-4.89-7.3-11.82-7.3-20.8v-17.84c0-9.35,2.34-16.59,7.02-21.72,4.67-5.12,11.29-7.69,19.85-7.69s14.61,2.75,19.18,8.25c4.56,5.5,6.84,13.28,6.84,23.34v12.41h-41.18v-12.2h25.88l.07-4.51c.05-3.99-.94-7.12-2.96-9.38-2.02-2.26-4.63-3.38-7.82-3.38-3.72,0-6.59,1.22-8.64,3.67-2.04,2.44-3.07,5.92-3.07,10.44v19.04c0,4.14,1.08,7.35,3.25,9.62,2.16,2.28,5.19,3.42,9.09,3.42,2.68,0,4.92-.66,6.73-1.97,1.81-1.32,3.07-3.18,3.77-5.57l14.03,5.01c-1.41,5.64-4.17,9.92-8.29,12.83-4.11,2.92-9.44,4.38-15.97,4.38Z"/>
      <path class="cls-1" d="M31.52,375.93c-5.55,0-10.47-.86-14.77-2.58-4.3-1.71-7.86-4.22-10.68-7.51-2.82-3.29-4.84-7.33-6.06-12.13l15.23-6.63c1.32,4.37,3.42,7.69,6.31,9.94,2.89,2.26,6.4,3.38,10.54,3.38,4.88,0,8.64-1.06,11.24-3.18,2.61-2.12,3.91-5.03,3.91-8.74v-4.59c0-3-.81-5.35-2.43-7.01-1.62-1.67-3.74-3.02-6.35-4.06-2.61-1.03-5.44-1.97-8.5-2.82-3.15-.99-6.35-2.06-9.62-3.21-3.26-1.15-6.24-2.7-8.92-4.65-2.68-1.95-4.84-4.57-6.49-7.86-1.65-3.29-2.47-7.52-2.47-12.69v-2.75c0-8.84,2.7-15.64,8.11-20.41,5.41-4.77,13.05-7.15,22.92-7.15,7.42,0,13.58,1.79,18.47,5.39,4.89,3.59,8.2,8.9,9.94,15.9l-14.59,6.84c-1.27-4.18-3.14-7.35-5.61-9.48-2.47-2.14-5.37-3.21-8.71-3.21-4.61,0-8.17,1-10.68,3-2.51,2-3.77,4.83-3.77,8.5v3.32c0,3.2.88,5.67,2.64,7.4,1.76,1.74,4.08,3.13,6.95,4.16,2.86,1.03,5.92,2.07,9.16,3.1,3.1.94,6.18,2,9.24,3.17,3.06,1.18,5.84,2.72,8.35,4.62,2.52,1.91,4.55,4.46,6.1,7.65,1.56,3.2,2.33,7.24,2.33,12.13v4.58c0,8.79-2.76,15.58-8.29,20.37-5.52,4.79-13.36,7.2-23.51,7.2Z"/>
      <path class="cls-1" d="M98.57,381.36l-26.02-79.67h15.73l19.18,63.46-8.88,16.22ZM115.35,301.69h15.73l-26.37,90.32c-1.41,4.74-3.79,8.17-7.15,10.26-3.36,2.09-7.98,3.14-13.85,3.14h-3.6v-15.65h3.73c2.54,0,4.56-.53,6.07-1.59,1.5-1.06,2.65-2.85,3.45-5.39l22-81.08Z"/>
      <path class="cls-1" d="M162.73,375.93c-7.43,0-13.5-1.52-18.23-4.55-4.72-3.03-7.86-7.39-9.41-13.08l13.61-6.62c1.46,3.15,3.41,5.53,5.85,7.15,2.44,1.62,5.34,2.44,8.67,2.44,3.62,0,6.41-.71,8.35-2.12,1.95-1.41,2.93-3.36,2.93-5.85,0-2.3-.74-4-2.22-5.08-1.48-1.08-3.42-1.9-5.82-2.47-2.4-.56-4.98-1.11-7.76-1.62-2.49-.61-4.98-1.32-7.47-2.12-2.49-.8-4.76-1.93-6.8-3.38-2.05-1.46-3.71-3.43-5.01-5.92-1.29-2.49-1.94-5.73-1.94-9.73,0-7.1,2.22-12.61,6.66-16.53,4.44-3.93,10.63-5.89,18.58-5.89,6.82,0,12.39,1.38,16.71,4.12,4.32,2.75,7.31,6.8,8.95,12.16l-13.61,6.49c-1.22-2.68-2.85-4.72-4.9-6.13-2.04-1.41-4.45-2.12-7.23-2.12-3.24,0-5.73.67-7.47,2.01-1.74,1.34-2.61,3.21-2.61,5.61,0,1.97.67,3.48,2.01,4.51,1.34,1.03,3.09,1.82,5.25,2.36,2.16.54,4.49,1.05,6.98,1.52,2.58.47,5.23,1.06,7.93,1.76,2.7.71,5.18,1.79,7.44,3.24,2.26,1.46,4.04,3.55,5.36,6.28,1.32,2.73,1.97,6.3,1.97,10.72,0,7.24-2.34,12.85-7.01,16.85-4.68,4-11.27,6-19.78,6Z"/>
      <path class="cls-1" d="M196.3,316.21v-14.52h33.42v14.52h-33.42ZM221.53,375.22c-6.34,0-10.94-1.67-13.78-5-2.85-3.34-4.27-8.13-4.27-14.38v-75.44h16.15v73.61c0,1.79.39,3.18,1.16,4.2.78,1.01,1.89,1.51,3.35,1.51h5.57v15.51h-8.18Z"/>
      <path class="cls-1" d="M270.47,375.93c-8.79,0-15.62-2.44-20.48-7.33-4.87-4.89-7.3-11.82-7.3-20.8v-17.84c0-9.35,2.34-16.59,7.02-21.72,4.67-5.12,11.29-7.69,19.85-7.69s14.61,2.75,19.18,8.25c4.56,5.5,6.84,13.28,6.84,23.34v12.41h-41.18v-12.2h25.88l.07-4.51c.05-3.99-.94-7.12-2.96-9.38-2.02-2.26-4.63-3.38-7.82-3.38-3.72,0-6.59,1.22-8.64,3.67-2.04,2.44-3.07,5.92-3.07,10.44v19.04c0,4.14,1.08,7.35,3.25,9.62,2.16,2.28,5.19,3.42,9.09,3.42,2.68,0,4.92-.66,6.73-1.97,1.81-1.32,3.07-3.18,3.77-5.57l14.03,5.01c-1.41,5.64-4.17,9.92-8.29,12.83-4.11,2.92-9.44,4.38-15.97,4.38Z"/>
      <path class="cls-1" d="M311.43,374.87v-73.19h16.21v73.19h-16.21ZM348.1,374.87v-47.31c0-3.85-.87-6.8-2.61-8.85-1.74-2.05-4.3-3.07-7.69-3.07s-5.8.95-7.54,2.85c-1.74,1.91-2.61,4.62-2.61,8.14l-1.48-12.41c1.88-4.51,4.39-7.93,7.55-10.26,3.15-2.32,6.77-3.49,10.85-3.49,6.3,0,11.15,2.13,14.56,6.38,3.41,4.25,5.11,10.33,5.11,18.23v49.78h-16.14ZM384.76,374.87v-47.31c0-3.85-.9-6.8-2.68-8.85-1.79-2.05-4.39-3.07-7.82-3.07-3.24,0-5.72,1.01-7.44,3.03-1.71,2.02-2.57,4.91-2.57,8.67l-2.4-12.55c1.97-4.7,4.63-8.26,7.97-10.68,3.33-2.42,7-3.63,11-3.63,6.44,0,11.41,2.18,14.91,6.53,3.5,4.35,5.25,10.52,5.25,18.51v49.36h-16.21Z"/>
    </g>
  </g>
</svg>